PathFileType	4	(x/y/z)	S02_P20_T45
DataRate	CameraRate	NumFrames	NumMarkers	Units	OrigDataRate	OrigDataStartFrame	OrigNumFrames
240	240	7	51	mm	240	261	347
Frame#	Time	Sternum			R.Acromium			L.Acromium			Top.Head			R.ASIS			L.ASIS			R.PSIS			L.PSIS			R.Great.Tro			L.Great.Tro			R.Iliac.Crest			L.Iliac.Crest			V.Sacral			R.Thigh.Upper.Post			R.Thigh.Lower.Ant			R.Thigh.Lower.Post			R.Thigh.Upper.Ant			R.Knee.Lat			R.Knee.Med			R.Shank.Upper.Post			R.Shank.Lower.Ant			R.Shank.Lower.Post			R.Shank.Upper.Ant			R.Ankle.Lat			R.Ankle.Med			R.Heel.Upper			R.Heel.Med			R.Heel.Lat			R.Toe.Lat			R.Toe.Med			R.Toe.Tip			L.Thigh.Upper.Post			L.Thigh.Lower.Ant			L.Thigh.Lower.Post			L.Thigh.Upper.Ant			L.Knee.Lat			L.Knee.Med			L.Shank.Upper.Post			L.Shank.Lower.Ant			L.Shank.Lower.Post			L.Shank.Upper.Ant			L.Ankle.Lat			L.Ankle.Med			L.Heel.Upper			L.Heel.Med			L.Heel.Lat			L.Toe.Lat			L.Toe.Med			L.Toe.Tip			Cervical.Spine			Back			
		X1	Y1	Z1	X2	Y2	Z2	X3	Y3	Z3	X4	Y4	Z4	X5	Y5	Z5	X6	Y6	Z6	X7	Y7	Z7	X8	Y8	Z8	X9	Y9	Z9	X10	Y10	Z10	X11	Y11	Z11	X12	Y12	Z12	X13	Y13	Z13	X14	Y14	Z14	X15	Y15	Z15	X16	Y16	Z16	X17	Y17	Z17	X18	Y18	Z18	X19	Y19	Z19	X20	Y20	Z20	X21	Y21	Z21	X22	Y22	Z22	X23	Y23	Z23	X24	Y24	Z24	X25	Y25	Z25	X26	Y26	Z26	X27	Y27	Z27	X28	Y28	Z28	X29	Y29	Z29	X30	Y30	Z30	X31	Y31	Z31	X32	Y32	Z32	X33	Y33	Z33	X34	Y34	Z34	X35	Y35	Z35	X36	Y36	Z36	X37	Y37	Z37	X38	Y38	Z38	X39	Y39	Z39	X40	Y40	Z40	X41	Y41	Z41	X42	Y42	Z42	X43	Y43	Z43	X44	Y44	Z44	X45	Y45	Z45	X46	Y46	Z46	X47	Y47	Z47	X48	Y48	Z48	X49	Y49	Z49	X50	Y50	Z50	X51	Y51	Z51	

261	1.0833	191.31	1082.3	284.71	84.5	1325	419.53	92.03	1323.3	125.02	166.35	1604.6	271.47	136.49	909	392.05	168.87	913.84	182.2	-67.87	950.82	319.18	-66.88	961.97	245.97	52.735	786.26	472.12	55.457	832.33	81.603	29.527	949.5	441.68	47.229	968.28	108.87	-90.708	908.28	270.57	85.567	587.14	470.7	155.96	513.9	456.7	84.215	497.33	456.9	153.06	603.48	466.22	104.83	424.3	453.47	129.21	403.89	309.31	-84.81	355.27	416.85	-107.71	247.8	401.07	-140.36	307.84	403.66	-54.112	289.45	422.34	-204.24	237.16	388.17	-171.99	236.48	307.32	-229.77	287.42	327.48	-249.01	265.81	293.97	-264.11	273.32	356.78	-220.02	119.56	403.13	-192.92	91.271	300.09	-158.59	56.276	361.13	81.169	592.75	107.39	174.51	535.53	120.53	101.56	507.29	133.02	145.48	623.32	96.278	176.38	452.93	134.37	166.15	455.12	271.27	89.457	283.48	136.43	154.62	194.7	157.54	83.91	211.27	154.03	153.41	269.31	139.53	101.28	98.632	170.36	113.83	95.332	252.8	42.256	65.572	204.73	50.78	40.023	239.13	48.158	37.224	177.08	214.77	35.576	147.25	235.25	46.577	257.35	295.07	63.754	210.3	14.063	1388.6	271.31	-68.976	1138.8	282.69
262	1.0875	196.88	1083.1	284.93	90.042	1326.1	419.49	98.17	1324.1	124.88	172.63	1605.6	271.29	141.97	910.17	392.06	174.23	914.34	182.08	-62.357	952.11	318.77	-61.373	963.24	245.58	58.67	787.74	472.08	60.202	833.12	81.472	34.822	950.72	441.41	52.853	969.14	108.59	-85.296	909.59	270.21	94.76	589.02	471.03	166.22	516.74	457.2	94.682	499.2	457.27	162.04	606.28	466.64	116.52	426.59	453.9	140.79	406.48	309.56	-72.442	356.17	416.6	-94.409	248.52	400.91	-127.58	308.28	403.35	-41.23	290.62	422.24	-190.85	237.14	387.7	-158.52	236.81	306.93	-217.19	286.73	326.88	-235.96	264.73	293.39	-251.27	272.12	356.16	-204.63	119.49	402.97	-176.91	91.407	300.03	-142.1	57.177	361.27	83.999	593.5	107.33	176.83	535.48	120.48	103.65	507.84	132.86	148.57	623.53	96.28	177.8	452.8	134.29	167.64	454.99	271.25	90.014	283.65	136.55	154.92	194.63	157.42	84.271	211.48	154.12	153.93	269.25	139.45	101.39	98.702	170.41	113.92	95.414	252.83	42.276	65.656	204.75	50.801	40.125	239.13	48.188	37.328	177.1	214.79	35.58	147.25	235.29	46.532	257.36	295.13	63.653	210.3	20.051	1389.8	271	-63.251	1140	281.98
263	1.0917	202.42	1084	285.16	95.596	1327.3	419.46	104.3	1324.9	124.77	178.9	1606.5	271.13	147.46	911.37	392.07	179.59	914.83	181.98	-56.817	953.46	318.38	-55.849	964.54	245.19	64.567	789.25	472.06	64.949	833.9	81.36	40.141	952	441.15	58.477	969.98	108.33	-79.882	910.97	269.87	103.94	590.98	471.33	176.45	519.66	457.63	105.13	501.16	457.61	171.02	609.14	467.01	128.15	428.95	454.26	152.3	409.18	309.78	-60.095	356.9	416.34	-80.985	249.06	400.74	-114.74	308.49	403.03	-28.282	291.68	422.13	-177.31	236.79	387.25	-144.95	236.88	306.55	-204.57	285.68	326.32	-222.84	263.26	292.87	-238.34	270.48	355.61	-188.89	119.1	402.83	-160.57	91.318	299.97	-125.19	57.936	361.36	86.809	594.25	107.3	179.13	535.43	120.46	105.71	508.4	132.75	151.65	623.73	96.31	179.18	452.68	134.22	169.17	454.88	271.27	90.567	283.83	136.67	155.21	194.59	157.33	84.632	211.7	154.2	154.45	269.22	139.39	101.5	98.776	170.48	114.01	95.501	252.85	42.297	65.75	204.78	50.819	40.232	239.14	48.218	37.44	177.11	214.81	35.583	147.25	235.34	46.486	257.37	295.19	63.549	210.3	26.036	1390.9	270.72	-57.538	1141.3	281.28
264	1.0958	207.94	1084.8	285.4	101.16	1328.4	419.44	110.41	1325.7	124.67	185.17	1607.5	271	152.96	912.59	392.09	184.95	915.3	181.89	-51.25	954.86	318.01	-50.311	965.88	244.81	70.43	790.78	472.04	69.695	834.65	81.266	45.491	953.34	440.89	64.097	970.79	108.07	-74.465	912.4	269.55	113.11	593	471.62	186.64	522.66	457.98	115.54	503.2	457.93	179.99	612.06	467.35	139.72	431.38	454.55	163.75	411.97	309.96	-47.771	357.47	416.07	-67.441	249.42	400.58	-101.86	308.46	402.72	-15.274	292.62	421.99	-163.64	236.11	386.83	-131.28	236.7	306.2	-191.9	284.25	325.82	-209.65	261.41	292.4	-225.32	268.42	355.12	-172.81	118.41	402.7	-143.91	91.011	299.89	-107.91	58.549	361.42	89.601	595.02	107.31	181.4	535.38	120.48	107.75	508.98	132.67	154.7	623.93	96.368	180.5	452.59	134.17	170.74	454.78	271.31	91.118	284.01	136.78	155.51	194.57	157.25	84.996	211.94	154.29	154.96	269.21	139.36	101.61	98.857	170.54	114.11	95.593	252.88	42.322	65.852	204.8	50.835	40.345	239.15	48.25	37.56	177.13	214.83	35.584	147.25	235.39	46.438	257.38	295.26	63.441	210.3	32.018	1392.1	270.45	-51.835	1142.5	280.59
265	1.1	213.45	1085.6	285.63	106.74	1329.5	419.42	116.52	1326.5	124.6	191.43	1608.5	270.89	158.47	913.82	392.1	190.31	915.76	181.81	-45.659	956.3	317.65	-44.759	967.25	244.45	76.266	792.32	472.02	74.438	835.39	81.191	50.875	954.73	440.64	69.708	971.58	107.84	-69.046	913.87	269.27	122.26	595.08	471.89	196.79	525.72	458.27	125.92	505.31	458.22	188.94	615.03	467.64	151.22	433.86	454.78	175.15	414.84	310.12	-35.468	357.86	415.8	-53.784	249.6	400.43	-88.931	308.2	402.42	-2.2113	293.43	421.84	-149.83	235.12	386.45	-117.52	236.26	305.87	-179.17	282.48	325.38	-196.37	259.19	291.99	-212.19	265.95	354.71	-156.43	117.44	402.59	-126.96	90.495	299.82	-90.29	59.014	361.46	92.373	595.79	107.35	183.64	535.32	120.53	109.76	509.56	132.63	157.73	624.13	96.45	181.79	452.51	134.15	172.34	454.7	271.39	91.67	284.21	136.89	155.8	194.56	157.19	85.363	212.18	154.38	155.47	269.21	139.34	101.73	98.942	170.61	114.2	95.69	252.92	42.349	65.963	204.83	50.849	40.462	239.16	48.283	37.688	177.15	214.85	35.585	147.25	235.45	46.389	257.39	295.32	63.331	210.3	37.996	1393.2	270.2	-46.141	1143.8	279.9
266	1.1042	218.93	1086.4	285.87	112.33	1330.7	419.4	122.62	1327.3	124.55	197.68	1609.4	270.79	164	915.08	392.09	195.68	916.22	181.73	-40.045	957.79	317.3	-39.196	968.64	244.09	82.082	793.86	472	79.176	836.12	81.135	56.295	956.17	440.4	75.308	972.35	107.61	-63.622	915.38	269.02	131.39	597.2	472.14	206.89	528.84	458.49	136.26	507.48	458.49	197.87	618.05	467.88	162.65	436.37	454.95	186.5	417.78	310.25	-23.19	358.09	415.53	-40.019	249.6	400.28	-75.953	307.7	402.14	10.902	294.12	421.69	-135.9	233.83	386.11	-103.66	235.56	305.57	-166.38	280.35	324.99	-183	256.62	291.65	-198.96	263.1	354.37	-139.75	116.2	402.5	-109.75	89.78	299.75	-72.364	59.336	361.48	95.128	596.56	107.42	185.85	535.27	120.6	111.75	510.16	132.63	160.74	624.31	96.555	183.05	452.44	134.14	173.95	454.64	271.48	92.226	284.42	137	156.1	194.57	157.15	85.735	212.43	154.46	155.99	269.24	139.34	101.86	99.034	170.69	114.3	95.792	252.96	42.38	66.081	204.86	50.86	40.583	239.16	48.318	37.824	177.17	214.87	35.585	147.25	235.5	46.338	257.4	295.39	63.218	210.3	43.97	1394.4	269.97	-40.454	1145.1	279.22
267	1.1083	224.39	1087.2	286.09	117.94	1331.8	419.37	128.72	1328.2	124.52	203.93	1610.4	270.72	169.53	916.35	392.06	201.04	916.68	181.65	-34.409	959.3	316.99	-33.624	970.03	243.76	87.886	795.41	471.98	83.91	836.82	81.1	61.755	957.64	440.16	80.892	973.09	107.39	-58.193	916.9	268.81	140.49	599.36	472.37	216.93	532	458.64	146.56	509.7	458.73	206.77	621.08	468.08	173.98	438.92	455.07	197.8	420.78	310.34	-10.935	358.13	415.28	-26.153	249.42	400.14	-62.928	306.97	401.87	24.06	294.68	421.52	-121.83	232.24	385.81	-89.713	234.61	305.3	-153.51	277.9	324.67	-169.52	253.71	291.37	-185.6	259.88	354.09	-122.81	114.72	402.46	-92.291	88.881	299.7	-54.164	59.523	361.51	97.865	597.33	107.53	188.03	535.2	120.7	113.72	510.77	132.67	163.73	624.49	96.683	184.28	452.39	134.15	175.57	454.58	271.6	92.785	284.64	137.12	156.4	194.6	157.13	86.111	212.69	154.56	156.5	269.28	139.36	101.98	99.131	170.77	114.41	95.898	253	42.415	66.208	204.89	50.868	40.708	239.17	48.353	37.967	177.2	214.89	35.584	147.25	235.56	46.287	257.41	295.46	63.103	210.3	49.938	1395.5	269.75	-34.773	1146.3	278.55
